<svg width="20" height="20" viewBox="0 0 20 20" fill="none" xmlns="http://www.w3.org/2000/svg">
<path d="M16.8248 11.7167L15.8832 10.15C15.6748 9.80834 15.4915 9.15001 15.4915 8.75001V7.19168C15.4915 4.16668 13.0332 1.70834 10.0165 1.70834C6.99151 1.71668 4.53318 4.16668 4.53318 7.19168V8.74168C4.53318 9.14168 4.34984 9.80001 4.14984 10.1417L3.20818 11.7083C2.84984 12.3167 2.76651 13.0083 2.99151 13.6083C3.21651 14.2167 3.72484 14.7 4.39151 14.9167C5.29151 15.2167 6.19984 15.4333 7.12484 15.5917C7.21651 15.6083 7.30818 15.6167 7.39984 15.6333C7.51651 15.65 7.64151 15.6667 7.76651 15.6833C7.98318 15.7167 8.19984 15.7417 8.42484 15.7583C8.94984 15.8083 9.48318 15.8333 10.0165 15.8333C10.5415 15.8333 11.0665 15.8083 11.5832 15.7583C11.7748 15.7417 11.9665 15.725 12.1498 15.7C12.2998 15.6833 12.4498 15.6667 12.5998 15.6417C12.6915 15.6333 12.7832 15.6167 12.8748 15.6C13.8082 15.45 14.7332 15.2167 15.6332 14.9167C16.2748 14.7 16.7665 14.2167 16.9998 13.6C17.2332 12.975 17.1665 12.2917 16.8248 11.7167ZM10.6248 8.33334C10.6248 8.68334 10.3415 8.96668 9.99151 8.96668C9.64151 8.96668 9.35818 8.68334 9.35818 8.33334V5.75001C9.35818 5.40001 9.64151 5.11668 9.99151 5.11668C10.3415 5.11668 10.6248 5.40001 10.6248 5.75001V8.33334Z" fill="#7A5AF8"/>
<path d="M12.3582 16.675C12.0082 17.6417 11.0832 18.3333 9.9999 18.3333C9.34157 18.3333 8.69157 18.0667 8.23324 17.5917C7.96657 17.3417 7.76657 17.0083 7.6499 16.6667C7.75824 16.6833 7.86657 16.6917 7.98324 16.7083C8.1749 16.7333 8.3749 16.7583 8.5749 16.775C9.0499 16.8167 9.53324 16.8417 10.0166 16.8417C10.4916 16.8417 10.9666 16.8167 11.4332 16.775C11.6082 16.7583 11.7832 16.75 11.9499 16.725C12.0832 16.7083 12.2166 16.6917 12.3582 16.675Z" fill="#7A5AF8"/>
</svg>
