<svg width="20" height="20" viewBox="0 0 20 20" fill="none" xmlns="http://www.w3.org/2000/svg">
<path d="M14.1665 2.02499H5.83317C3.33317 2.02499 1.6665 3.69166 1.6665 6.19166V11.1917C1.6665 13.6917 3.33317 15.3583 5.83317 15.3583V17.1333C5.83317 17.8 6.57484 18.2 7.12484 17.825L10.8332 15.3583H14.1665C16.6665 15.3583 18.3332 13.6917 18.3332 11.1917V6.19166C18.3332 3.69166 16.6665 2.02499 14.1665 2.02499ZM9.99984 12.1667C9.64984 12.1667 9.37484 11.8833 9.37484 11.5417C9.37484 11.2 9.64984 10.9167 9.99984 10.9167C10.3498 10.9167 10.6248 11.2 10.6248 11.5417C10.6248 11.8833 10.3498 12.1667 9.99984 12.1667ZM11.0498 8.70833C10.7248 8.92499 10.6248 9.06666 10.6248 9.29999V9.47499C10.6248 9.81666 10.3415 10.1 9.99984 10.1C9.65817 10.1 9.37484 9.81666 9.37484 9.47499V9.29999C9.37484 8.33333 10.0832 7.85833 10.3498 7.67499C10.6582 7.46666 10.7582 7.32499 10.7582 7.10833C10.7582 6.69166 10.4165 6.34999 9.99984 6.34999C9.58317 6.34999 9.2415 6.69166 9.2415 7.10833C9.2415 7.44999 8.95817 7.73333 8.6165 7.73333C8.27484 7.73333 7.9915 7.44999 7.9915 7.10833C7.9915 5.99999 8.8915 5.09999 9.99984 5.09999C11.1082 5.09999 12.0082 5.99999 12.0082 7.10833C12.0082 8.05833 11.3082 8.53333 11.0498 8.70833Z" fill="#7A5AF8"/>
</svg>
