<svg width="20" height="20" viewBox="0 0 20 20" fill="none" xmlns="http://www.w3.org/2000/svg">
<path d="M17.9414 13.275C17.8081 13.05 17.4331 12.7 16.4998 12.8667C15.9831 12.9583 15.4581 13 14.9331 12.975C12.9914 12.8917 11.2331 12 10.0081 10.625C8.92476 9.41666 8.25809 7.84166 8.24976 6.14166C8.24976 5.19166 8.43309 4.275 8.80809 3.40833C9.17476 2.56666 8.91642 2.125 8.73309 1.94166C8.54142 1.75 8.09142 1.48333 7.20809 1.85C3.79976 3.28333 1.69142 6.7 1.94142 10.3583C2.19142 13.8 4.60809 16.7417 7.80809 17.85C8.57476 18.1167 9.38309 18.275 10.2164 18.3083C10.3498 18.3167 10.4831 18.325 10.6164 18.325C13.4081 18.325 16.0248 17.0083 17.6748 14.7667C18.2331 13.9917 18.0831 13.5 17.9414 13.275Z" fill="#7A5AF8"/>
</svg>
