<svg width="18" height="18" viewBox="0 0 18 18" fill="none" xmlns="http://www.w3.org/2000/svg">
<path d="M6.75014 9.75C6.25514 9.9975 5.84264 10.365 5.53514 10.8225C5.36264 11.085 5.36264 11.415 5.53514 11.6775C5.84264 12.135 6.25514 12.5025 6.75014 12.75" stroke="#7A5AF8" stroke-width="1.5" stroke-linecap="round" stroke-linejoin="round"/>
<path d="M11.4077 9.75C11.9027 9.9975 12.3152 10.365 12.6227 10.8225C12.7952 11.085 12.7952 11.415 12.6227 11.6775C12.3152 12.135 11.9027 12.5025 11.4077 12.75" stroke="#7A5AF8" stroke-width="1.5" stroke-linecap="round" stroke-linejoin="round"/>
<path d="M6.75 16.5H11.25C15 16.5 16.5 15 16.5 11.25V6.75C16.5 3 15 1.5 11.25 1.5H6.75C3 1.5 1.5 3 1.5 6.75V11.25C1.5 15 3 16.5 6.75 16.5Z" stroke="#7A5AF8" stroke-width="1.5" stroke-linecap="round" stroke-linejoin="round"/>
<path d="M1.67236 6.0075L16.0874 6" stroke="#7A5AF8" stroke-width="1.5" stroke-linecap="round" stroke-linejoin="round"/>
</svg>
