<svg width="18" height="18" viewBox="0 0 18 18" fill="none" xmlns="http://www.w3.org/2000/svg">
<path d="M15.1424 10.545L14.2949 9.13501C14.1074 8.82751 13.9424 8.23501 13.9424 7.87501V6.47251C13.9424 3.75001 11.7299 1.53751 9.01491 1.53751C6.29241 1.54501 4.07991 3.75001 4.07991 6.47251V7.86751C4.07991 8.22751 3.91491 8.82001 3.73491 9.12751L2.88741 10.5375C2.56491 11.085 2.48991 11.7075 2.69241 12.2475C2.89491 12.795 3.35241 13.23 3.95241 13.425C4.76241 13.695 5.57991 13.89 6.41241 14.0325C6.49491 14.0475 6.57741 14.055 6.65991 14.07C6.76491 14.085 6.87741 14.1 6.98991 14.115C7.18491 14.145 7.37991 14.1675 7.58241 14.1825C8.05491 14.2275 8.53491 14.25 9.01491 14.25C9.48741 14.25 9.95991 14.2275 10.4249 14.1825C10.5974 14.1675 10.7699 14.1525 10.9349 14.13C11.0699 14.115 11.2049 14.1 11.3399 14.0775C11.4224 14.07 11.5049 14.055 11.5874 14.04C12.4274 13.905 13.2599 13.695 14.0699 13.425C14.6474 13.23 15.0899 12.795 15.2999 12.24C15.5099 11.6775 15.4499 11.0625 15.1424 10.545ZM9.56241 7.50001C9.56241 7.81501 9.30741 8.07001 8.99241 8.07001C8.67741 8.07001 8.42241 7.81501 8.42241 7.50001V5.17501C8.42241 4.86001 8.67741 4.60501 8.99241 4.60501C9.30741 4.60501 9.56241 4.86001 9.56241 5.17501V7.50001Z" fill="#7A5AF8"/>
<path d="M11.1223 15.0075C10.8073 15.8775 9.97477 16.5 8.99977 16.5C8.40727 16.5 7.82227 16.26 7.40977 15.8325C7.16977 15.6075 6.98977 15.3075 6.88477 15C6.98227 15.015 7.07977 15.0225 7.18477 15.0375C7.35727 15.06 7.53727 15.0825 7.71727 15.0975C8.14477 15.135 8.57977 15.1575 9.01477 15.1575C9.44227 15.1575 9.86977 15.135 10.2898 15.0975C10.4473 15.0825 10.6048 15.075 10.7548 15.0525C10.8748 15.0375 10.9948 15.0225 11.1223 15.0075Z" fill="#7A5AF8"/>
</svg>
